<svg width="31" height="31" viewBox="0 0 31 31" fill="none" xmlns="http://www.w3.org/2000/svg">
<path d="M10.8547 26.4304H6.58436C5.07429 26.4304 3.62606 25.8305 2.55828 24.7627C1.4905 23.695 0.890625 22.2467 0.890625 20.7367V7.92576C0.890625 6.41569 1.4905 4.96746 2.55828 3.89968C3.62606 2.8319 5.07429 2.23203 6.58436 2.23203H22.2421C23.7522 2.23203 25.2004 2.8319 26.2682 3.89968C27.336 4.96746 27.9359 6.41569 27.9359 7.92576V12.1961M9.43122 0.808594V3.65546M19.3953 0.808594V3.65546M0.890625 9.34919H27.9359M24.3773 20.2285L22.2421 22.3636" stroke="#1E9DA3" stroke-width="1.48433" stroke-linecap="round" stroke-linejoin="round"/>
<path d="M22.2422 29.2773C26.1729 29.2773 29.3593 26.0908 29.3593 22.1601C29.3593 18.2294 26.1729 15.043 22.2422 15.043C18.3115 15.043 15.125 18.2294 15.125 22.1601C15.125 26.0908 18.3115 29.2773 22.2422 29.2773Z" stroke="#1E9DA3" stroke-width="1.48433" stroke-linecap="round" stroke-linejoin="round"/>
</svg>
