<svg width="18" height="27" viewBox="0 0 18 27" fill="none" xmlns="http://www.w3.org/2000/svg">
<path fill-rule="evenodd" clip-rule="evenodd" d="M9.01539 1.65808C8.37214 1.65808 7.73519 1.78406 7.1409 2.02883C6.54661 2.2736 6.00662 2.63237 5.55177 3.08464C5.09692 3.53692 4.73612 4.07385 4.48996 4.66477C4.24379 5.2557 4.1171 5.88905 4.1171 6.52866C4.1171 7.16828 4.24379 7.80163 4.48996 8.39255C4.73612 8.98348 5.09692 9.52041 5.55177 9.97268C6.00662 10.425 6.54661 10.7837 7.1409 11.0285C7.73519 11.2733 8.37214 11.3992 9.01539 11.3992C10.3145 11.3992 11.5604 10.8861 12.479 9.97268C13.3976 9.05927 13.9137 7.82042 13.9137 6.52866C13.9137 5.2369 13.3976 3.99805 12.479 3.08464C11.5604 2.17123 10.3145 1.65808 9.01539 1.65808ZM2.48433 6.52866C2.48445 5.27891 2.84722 4.05574 3.52913 3.00592C4.21103 1.9561 5.1831 1.12422 6.32868 0.610105C7.47427 0.0959911 8.74472 -0.0785205 9.98757 0.10751C11.2304 0.293541 12.3929 0.832212 13.3355 1.65889C14.2781 2.48556 14.9608 3.56512 15.3017 4.76803C15.6426 5.97095 15.6271 7.24611 15.2572 8.44051C14.8873 9.63491 14.1787 10.6978 13.2163 11.5017C12.254 12.3055 11.0788 12.8162 9.83178 12.9724V21.9522C9.83178 22.1675 9.74577 22.3739 9.59266 22.5262C9.43956 22.6784 9.23191 22.7639 9.01539 22.7639C8.79888 22.7639 8.59123 22.6784 8.43812 22.5262C8.28502 22.3739 8.19901 22.1675 8.19901 21.9522V12.9741C6.62007 12.7763 5.16809 12.012 4.11581 10.8249C3.06354 9.63777 2.48338 8.10946 2.48433 6.52704V6.52866ZM6.55482 20.4488C6.59022 20.661 6.53943 20.8786 6.4136 21.0537C6.28777 21.2287 6.09719 21.3469 5.88375 21.3823C4.72122 21.5739 3.79381 21.8612 3.18152 22.1827C2.9566 22.2902 2.75218 22.4358 2.5774 22.6129C2.53788 22.6558 2.50637 22.7052 2.48433 22.7591V22.7639L2.48759 22.7769C2.49402 22.7958 2.5028 22.8138 2.51372 22.8305C2.57816 22.9244 2.65822 23.0068 2.75047 23.074C3.01988 23.2851 3.46072 23.5124 4.07791 23.7153C5.30412 24.1212 7.04954 24.3875 9.01539 24.3875C10.9812 24.3875 12.7267 24.1228 13.9529 23.7153C14.5701 23.5108 15.0109 23.2851 15.2803 23.074C15.3731 23.0069 15.4537 22.9245 15.5187 22.8305C15.529 22.8137 15.5373 22.7957 15.5432 22.7769L15.5465 22.7639V22.7574C15.5244 22.7036 15.4929 22.6541 15.4534 22.6113C15.2785 22.4347 15.0741 22.2897 14.8493 22.1827C14.2353 21.8612 13.3096 21.5739 12.147 21.3823C12.0388 21.3677 11.9345 21.3317 11.8405 21.2763C11.7465 21.2209 11.6646 21.1473 11.5997 21.0598C11.5348 20.9724 11.4883 20.8729 11.4628 20.7672C11.4373 20.6616 11.4334 20.5519 11.4513 20.4447C11.4693 20.3375 11.5087 20.235 11.5672 20.1432C11.6257 20.0515 11.7021 19.9723 11.792 19.9105C11.8818 19.8486 11.9833 19.8053 12.0903 19.7832C12.1972 19.761 12.3076 19.7605 12.4148 19.7815C13.672 19.9877 14.7856 20.314 15.6101 20.7459C16.3628 21.1404 17.1792 21.7898 17.1792 22.7639C17.1792 23.4556 16.7547 23.9848 16.291 24.3501C15.8175 24.7203 15.1807 25.0206 14.4688 25.256C13.0353 25.7317 11.107 26.011 9.01539 26.011C6.92382 26.011 4.99552 25.7317 3.56195 25.256C2.85007 25.0206 2.21329 24.7203 1.73979 24.3501C1.27608 23.9848 0.851562 23.4556 0.851562 22.7639C0.851562 21.7914 1.66795 21.1404 2.42065 20.7459C3.2452 20.314 4.35874 19.9877 5.61597 19.7815C5.82945 19.7463 6.04825 19.7968 6.22429 19.9219C6.40033 20.0471 6.51921 20.2365 6.55482 20.4488Z" fill="#1E9DA3"/>
</svg>
